<svg xmlns="http://www.w3.org/2000/svg" viewBox="0 0 512 512" fill="none">
  <!-- CrabHub Logo -->
  <circle cx="256" cy="256" r="240" fill="white" />
  <g transform="translate(48,48) scale(13)">
    <ellipse cx="13" cy="16" rx="8" ry="6" fill="#EF4444" stroke="#DC2626" stroke-width="0.8" />
    <circle cx="10" cy="13" r="1.8" fill="white" />
    <circle cx="16" cy="13" r="1.8" fill="white" />
    <circle cx="10" cy="12.8" r="0.9" fill="#1a1a1a" />
    <circle cx="16" cy="12.8" r="0.9" fill="#1a1a1a" />
    <path d="M11 17.5 Q13 19, 15 17.5" stroke="#991B1B" stroke-width="0.6" fill="none" />
    <path d="M5 15 C5 15, -1 10, -2 6 C-3 3, 0 3, 1 6 L3 10" fill="#EF4444" stroke="#DC2626" stroke-width="0.8" />
    <path d="M-2 6 C-2 6, -4 4, -3 2 C-2 0, -1 2, 0 4" fill="#DC2626" stroke="#991B1B" stroke-width="0.5" />
    <path d="M21 15 C21 15, 27 10, 28 6 C29 3, 26 3, 25 6 L23 10" fill="#EF4444" stroke="#DC2626" stroke-width="0.8" />
    <path d="M28 6 C28 6, 30 4, 29 2 C28 0, 27 2, 26 4" fill="#DC2626" stroke="#991B1B" stroke-width="0.5" />
    <path d="M7 17 L2 19 L1 21" stroke="#DC2626" stroke-width="0.7" fill="none" />
    <path d="M7 18 L3 21 L2 23" stroke="#DC2626" stroke-width="0.7" fill="none" />
    <path d="M8 19 L4 22 L3 24" stroke="#DC2626" stroke-width="0.7" fill="none" />
    <path d="M19 17 L24 19 L25 21" stroke="#DC2626" stroke-width="0.7" fill="none" />
    <path d="M19 18 L23 21 L24 23" stroke="#DC2626" stroke-width="0.7" fill="none" />
    <path d="M18 19 L22 22 L23 24" stroke="#DC2626" stroke-width="0.7" fill="none" />
  </g>
</svg>
